<svg viewBox="0 0 32 32" style="background-color:#ffffff00" xmlns="http://www.w3.org/2000/svg" width="32" height="32"><path d="M31.97 6.073a13.064 13.064 0 0 1-3.762 1.034 6.585 6.585 0 0 0 2.88-3.634 13.096 13.096 0 0 1-4.16 1.594 6.534 6.534 0 0 0-4.78-2.075c-3.619 0-6.552 2.942-6.552 6.57a6.6 6.6 0 0 0 .17 1.497c-5.445-.274-10.272-2.89-13.503-6.864a6.553 6.553 0 0 0-.887 3.302 6.57 6.57 0 0 0 2.915 5.468 6.51 6.51 0 0 1-2.968-.821v.082a6.569 6.569 0 0 0 5.255 6.442 6.544 6.544 0 0 1-2.959.112 6.56 6.56 0 0 0 6.12 4.563 13.121 13.121 0 0 1-8.136 2.812c-.529 0-1.05-.031-1.563-.092a18.504 18.504 0 0 0 10.042 2.951c12.05 0 18.639-10.01 18.639-18.69 0-.286-.006-.569-.019-.85a13.334 13.334 0 0 0 3.269-3.401z" fill="#55acee"/></svg>