<svg width="384px" height="384px" viewBox="0 0 384 384" xmlns="http://www.w3.org/2000/svg" style="font-family:sans-serif">
    <rect width="24" height="24" fill="#000000" x="0" y="0" />
    <text x="12" y="16" font-size="12" fill="#fff" text-anchor="middle">0</text>
    <rect width="24" height="24" fill="#010101" x="24" y="0" />
    <text x="36" y="16" font-size="12" fill="#fff" text-anchor="middle">1</text>
    <rect width="24" height="24" fill="#020202" x="48" y="0" />
    <text x="60" y="16" font-size="12" fill="#fff" text-anchor="middle">2</text>
    <rect width="24" height="24" fill="#030303" x="72" y="0" />
    <text x="84" y="16" font-size="12" fill="#fff" text-anchor="middle">3</text>
    <rect width="24" height="24" fill="#040404" x="96" y="0" />
    <text x="108" y="16" font-size="12" fill="#fff" text-anchor="middle">4</text>
    <rect width="24" height="24" fill="#050505" x="120" y="0" />
    <text x="132" y="16" font-size="12" fill="#fff" text-anchor="middle">5</text>
    <rect width="24" height="24" fill="#060606" x="144" y="0" />
    <text x="156" y="16" font-size="12" fill="#fff" text-anchor="middle">6</text>
    <rect width="24" height="24" fill="#070707" x="168" y="0" />
    <text x="180" y="16" font-size="12" fill="#fff" text-anchor="middle">7</text>
    <rect width="24" height="24" fill="#080808" x="192" y="0" />
    <text x="204" y="16" font-size="12" fill="#fff" text-anchor="middle">8</text>
    <rect width="24" height="24" fill="#090909" x="216" y="0" />
    <text x="228" y="16" font-size="12" fill="#fff" text-anchor="middle">9</text>
    <rect width="24" height="24" fill="#0a0a0a" x="240" y="0" />
    <text x="252" y="16" font-size="12" fill="#fff" text-anchor="middle">10</text>
    <rect width="24" height="24" fill="#0b0b0b" x="264" y="0" />
    <text x="276" y="16" font-size="12" fill="#fff" text-anchor="middle">11</text>
    <rect width="24" height="24" fill="#0c0c0c" x="288" y="0" />
    <text x="300" y="16" font-size="12" fill="#fff" text-anchor="middle">12</text>
    <rect width="24" height="24" fill="#0d0d0d" x="312" y="0" />
    <text x="324" y="16" font-size="12" fill="#fff" text-anchor="middle">13</text>
    <rect width="24" height="24" fill="#0e0e0e" x="336" y="0" />
    <text x="348" y="16" font-size="12" fill="#fff" text-anchor="middle">14</text>
    <rect width="24" height="24" fill="#0f0f0f" x="360" y="0" />
    <text x="372" y="16" font-size="12" fill="#fff" text-anchor="middle">15</text>
    <rect width="24" height="24" fill="#101010" x="0" y="24" />
    <text x="12" y="40" font-size="12" fill="#fff" text-anchor="middle">16</text>
    <rect width="24" height="24" fill="#111111" x="24" y="24" />
    <text x="36" y="40" font-size="12" fill="#fff" text-anchor="middle">17</text>
    <rect width="24" height="24" fill="#121212" x="48" y="24" />
    <text x="60" y="40" font-size="12" fill="#fff" text-anchor="middle">18</text>
    <rect width="24" height="24" fill="#131313" x="72" y="24" />
    <text x="84" y="40" font-size="12" fill="#fff" text-anchor="middle">19</text>
    <rect width="24" height="24" fill="#141414" x="96" y="24" />
    <text x="108" y="40" font-size="12" fill="#fff" text-anchor="middle">20</text>
    <rect width="24" height="24" fill="#151515" x="120" y="24" />
    <text x="132" y="40" font-size="12" fill="#fff" text-anchor="middle">21</text>
    <rect width="24" height="24" fill="#161616" x="144" y="24" />
    <text x="156" y="40" font-size="12" fill="#fff" text-anchor="middle">22</text>
    <rect width="24" height="24" fill="#171717" x="168" y="24" />
    <text x="180" y="40" font-size="12" fill="#fff" text-anchor="middle">23</text>
    <rect width="24" height="24" fill="#181818" x="192" y="24" />
    <text x="204" y="40" font-size="12" fill="#fff" text-anchor="middle">24</text>
    <rect width="24" height="24" fill="#191919" x="216" y="24" />
    <text x="228" y="40" font-size="12" fill="#fff" text-anchor="middle">25</text>
    <rect width="24" height="24" fill="#1a1a1a" x="240" y="24" />
    <text x="252" y="40" font-size="12" fill="#fff" text-anchor="middle">26</text>
    <rect width="24" height="24" fill="#1b1b1b" x="264" y="24" />
    <text x="276" y="40" font-size="12" fill="#fff" text-anchor="middle">27</text>
    <rect width="24" height="24" fill="#1c1c1c" x="288" y="24" />
    <text x="300" y="40" font-size="12" fill="#fff" text-anchor="middle">28</text>
    <rect width="24" height="24" fill="#1d1d1d" x="312" y="24" />
    <text x="324" y="40" font-size="12" fill="#fff" text-anchor="middle">29</text>
    <rect width="24" height="24" fill="#1e1e1e" x="336" y="24" />
    <text x="348" y="40" font-size="12" fill="#fff" text-anchor="middle">30</text>
    <rect width="24" height="24" fill="#1f1f1f" x="360" y="24" />
    <text x="372" y="40" font-size="12" fill="#fff" text-anchor="middle">31</text>
    <rect width="24" height="24" fill="#202020" x="0" y="48" />
    <text x="12" y="64" font-size="12" fill="#fff" text-anchor="middle">32</text>
    <rect width="24" height="24" fill="#212121" x="24" y="48" />
    <text x="36" y="64" font-size="12" fill="#fff" text-anchor="middle">33</text>
    <rect width="24" height="24" fill="#222222" x="48" y="48" />
    <text x="60" y="64" font-size="12" fill="#fff" text-anchor="middle">34</text>
    <rect width="24" height="24" fill="#232323" x="72" y="48" />
    <text x="84" y="64" font-size="12" fill="#fff" text-anchor="middle">35</text>
    <rect width="24" height="24" fill="#242424" x="96" y="48" />
    <text x="108" y="64" font-size="12" fill="#fff" text-anchor="middle">36</text>
    <rect width="24" height="24" fill="#252525" x="120" y="48" />
    <text x="132" y="64" font-size="12" fill="#fff" text-anchor="middle">37</text>
    <rect width="24" height="24" fill="#262626" x="144" y="48" />
    <text x="156" y="64" font-size="12" fill="#fff" text-anchor="middle">38</text>
    <rect width="24" height="24" fill="#272727" x="168" y="48" />
    <text x="180" y="64" font-size="12" fill="#fff" text-anchor="middle">39</text>
    <rect width="24" height="24" fill="#282828" x="192" y="48" />
    <text x="204" y="64" font-size="12" fill="#fff" text-anchor="middle">40</text>
    <rect width="24" height="24" fill="#292929" x="216" y="48" />
    <text x="228" y="64" font-size="12" fill="#fff" text-anchor="middle">41</text>
    <rect width="24" height="24" fill="#2a2a2a" x="240" y="48" />
    <text x="252" y="64" font-size="12" fill="#fff" text-anchor="middle">42</text>
    <rect width="24" height="24" fill="#2b2b2b" x="264" y="48" />
    <text x="276" y="64" font-size="12" fill="#fff" text-anchor="middle">43</text>
    <rect width="24" height="24" fill="#2c2c2c" x="288" y="48" />
    <text x="300" y="64" font-size="12" fill="#fff" text-anchor="middle">44</text>
    <rect width="24" height="24" fill="#2d2d2d" x="312" y="48" />
    <text x="324" y="64" font-size="12" fill="#fff" text-anchor="middle">45</text>
    <rect width="24" height="24" fill="#2e2e2e" x="336" y="48" />
    <text x="348" y="64" font-size="12" fill="#fff" text-anchor="middle">46</text>
    <rect width="24" height="24" fill="#2f2f2f" x="360" y="48" />
    <text x="372" y="64" font-size="12" fill="#fff" text-anchor="middle">47</text>
    <rect width="24" height="24" fill="#303030" x="0" y="72" />
    <text x="12" y="88" font-size="12" fill="#fff" text-anchor="middle">48</text>
    <rect width="24" height="24" fill="#313131" x="24" y="72" />
    <text x="36" y="88" font-size="12" fill="#fff" text-anchor="middle">49</text>
    <rect width="24" height="24" fill="#323232" x="48" y="72" />
    <text x="60" y="88" font-size="12" fill="#fff" text-anchor="middle">50</text>
    <rect width="24" height="24" fill="#333333" x="72" y="72" />
    <text x="84" y="88" font-size="12" fill="#fff" text-anchor="middle">51</text>
    <rect width="24" height="24" fill="#343434" x="96" y="72" />
    <text x="108" y="88" font-size="12" fill="#fff" text-anchor="middle">52</text>
    <rect width="24" height="24" fill="#353535" x="120" y="72" />
    <text x="132" y="88" font-size="12" fill="#fff" text-anchor="middle">53</text>
    <rect width="24" height="24" fill="#363636" x="144" y="72" />
    <text x="156" y="88" font-size="12" fill="#fff" text-anchor="middle">54</text>
    <rect width="24" height="24" fill="#373737" x="168" y="72" />
    <text x="180" y="88" font-size="12" fill="#fff" text-anchor="middle">55</text>
    <rect width="24" height="24" fill="#383838" x="192" y="72" />
    <text x="204" y="88" font-size="12" fill="#fff" text-anchor="middle">56</text>
    <rect width="24" height="24" fill="#393939" x="216" y="72" />
    <text x="228" y="88" font-size="12" fill="#fff" text-anchor="middle">57</text>
    <rect width="24" height="24" fill="#3a3a3a" x="240" y="72" />
    <text x="252" y="88" font-size="12" fill="#fff" text-anchor="middle">58</text>
    <rect width="24" height="24" fill="#3b3b3b" x="264" y="72" />
    <text x="276" y="88" font-size="12" fill="#fff" text-anchor="middle">59</text>
    <rect width="24" height="24" fill="#3c3c3c" x="288" y="72" />
    <text x="300" y="88" font-size="12" fill="#fff" text-anchor="middle">60</text>
    <rect width="24" height="24" fill="#3d3d3d" x="312" y="72" />
    <text x="324" y="88" font-size="12" fill="#fff" text-anchor="middle">61</text>
    <rect width="24" height="24" fill="#3e3e3e" x="336" y="72" />
    <text x="348" y="88" font-size="12" fill="#fff" text-anchor="middle">62</text>
    <rect width="24" height="24" fill="#3f3f3f" x="360" y="72" />
    <text x="372" y="88" font-size="12" fill="#fff" text-anchor="middle">63</text>
    <rect width="24" height="24" fill="#404040" x="0" y="96" />
    <text x="12" y="112" font-size="12" fill="#fff" text-anchor="middle">64</text>
    <rect width="24" height="24" fill="#414141" x="24" y="96" />
    <text x="36" y="112" font-size="12" fill="#fff" text-anchor="middle">65</text>
    <rect width="24" height="24" fill="#424242" x="48" y="96" />
    <text x="60" y="112" font-size="12" fill="#fff" text-anchor="middle">66</text>
    <rect width="24" height="24" fill="#434343" x="72" y="96" />
    <text x="84" y="112" font-size="12" fill="#fff" text-anchor="middle">67</text>
    <rect width="24" height="24" fill="#444444" x="96" y="96" />
    <text x="108" y="112" font-size="12" fill="#fff" text-anchor="middle">68</text>
    <rect width="24" height="24" fill="#454545" x="120" y="96" />
    <text x="132" y="112" font-size="12" fill="#fff" text-anchor="middle">69</text>
    <rect width="24" height="24" fill="#464646" x="144" y="96" />
    <text x="156" y="112" font-size="12" fill="#fff" text-anchor="middle">70</text>
    <rect width="24" height="24" fill="#474747" x="168" y="96" />
    <text x="180" y="112" font-size="12" fill="#fff" text-anchor="middle">71</text>
    <rect width="24" height="24" fill="#484848" x="192" y="96" />
    <text x="204" y="112" font-size="12" fill="#fff" text-anchor="middle">72</text>
    <rect width="24" height="24" fill="#494949" x="216" y="96" />
    <text x="228" y="112" font-size="12" fill="#fff" text-anchor="middle">73</text>
    <rect width="24" height="24" fill="#4a4a4a" x="240" y="96" />
    <text x="252" y="112" font-size="12" fill="#fff" text-anchor="middle">74</text>
    <rect width="24" height="24" fill="#4b4b4b" x="264" y="96" />
    <text x="276" y="112" font-size="12" fill="#fff" text-anchor="middle">75</text>
    <rect width="24" height="24" fill="#4c4c4c" x="288" y="96" />
    <text x="300" y="112" font-size="12" fill="#fff" text-anchor="middle">76</text>
    <rect width="24" height="24" fill="#4d4d4d" x="312" y="96" />
    <text x="324" y="112" font-size="12" fill="#fff" text-anchor="middle">77</text>
    <rect width="24" height="24" fill="#4e4e4e" x="336" y="96" />
    <text x="348" y="112" font-size="12" fill="#fff" text-anchor="middle">78</text>
    <rect width="24" height="24" fill="#4f4f4f" x="360" y="96" />
    <text x="372" y="112" font-size="12" fill="#fff" text-anchor="middle">79</text>
    <rect width="24" height="24" fill="#505050" x="0" y="120" />
    <text x="12" y="136" font-size="12" fill="#fff" text-anchor="middle">80</text>
    <rect width="24" height="24" fill="#515151" x="24" y="120" />
    <text x="36" y="136" font-size="12" fill="#fff" text-anchor="middle">81</text>
    <rect width="24" height="24" fill="#525252" x="48" y="120" />
    <text x="60" y="136" font-size="12" fill="#fff" text-anchor="middle">82</text>
    <rect width="24" height="24" fill="#535353" x="72" y="120" />
    <text x="84" y="136" font-size="12" fill="#fff" text-anchor="middle">83</text>
    <rect width="24" height="24" fill="#545454" x="96" y="120" />
    <text x="108" y="136" font-size="12" fill="#fff" text-anchor="middle">84</text>
    <rect width="24" height="24" fill="#555555" x="120" y="120" />
    <text x="132" y="136" font-size="12" fill="#fff" text-anchor="middle">85</text>
    <rect width="24" height="24" fill="#565656" x="144" y="120" />
    <text x="156" y="136" font-size="12" fill="#fff" text-anchor="middle">86</text>
    <rect width="24" height="24" fill="#575757" x="168" y="120" />
    <text x="180" y="136" font-size="12" fill="#fff" text-anchor="middle">87</text>
    <rect width="24" height="24" fill="#585858" x="192" y="120" />
    <text x="204" y="136" font-size="12" fill="#fff" text-anchor="middle">88</text>
    <rect width="24" height="24" fill="#595959" x="216" y="120" />
    <text x="228" y="136" font-size="12" fill="#fff" text-anchor="middle">89</text>
    <rect width="24" height="24" fill="#5a5a5a" x="240" y="120" />
    <text x="252" y="136" font-size="12" fill="#fff" text-anchor="middle">90</text>
    <rect width="24" height="24" fill="#5b5b5b" x="264" y="120" />
    <text x="276" y="136" font-size="12" fill="#fff" text-anchor="middle">91</text>
    <rect width="24" height="24" fill="#5c5c5c" x="288" y="120" />
    <text x="300" y="136" font-size="12" fill="#fff" text-anchor="middle">92</text>
    <rect width="24" height="24" fill="#5d5d5d" x="312" y="120" />
    <text x="324" y="136" font-size="12" fill="#fff" text-anchor="middle">93</text>
    <rect width="24" height="24" fill="#5e5e5e" x="336" y="120" />
    <text x="348" y="136" font-size="12" fill="#fff" text-anchor="middle">94</text>
    <rect width="24" height="24" fill="#5f5f5f" x="360" y="120" />
    <text x="372" y="136" font-size="12" fill="#fff" text-anchor="middle">95</text>
    <rect width="24" height="24" fill="#606060" x="0" y="144" />
    <text x="12" y="160" font-size="12" fill="#fff" text-anchor="middle">96</text>
    <rect width="24" height="24" fill="#616161" x="24" y="144" />
    <text x="36" y="160" font-size="12" fill="#fff" text-anchor="middle">97</text>
    <rect width="24" height="24" fill="#626262" x="48" y="144" />
    <text x="60" y="160" font-size="12" fill="#fff" text-anchor="middle">98</text>
    <rect width="24" height="24" fill="#636363" x="72" y="144" />
    <text x="84" y="160" font-size="12" fill="#fff" text-anchor="middle">99</text>
    <rect width="24" height="24" fill="#646464" x="96" y="144" />
    <text x="108" y="160" font-size="12" fill="#fff" text-anchor="middle">100</text>
    <rect width="24" height="24" fill="#656565" x="120" y="144" />
    <text x="132" y="160" font-size="12" fill="#fff" text-anchor="middle">101</text>
    <rect width="24" height="24" fill="#666666" x="144" y="144" />
    <text x="156" y="160" font-size="12" fill="#fff" text-anchor="middle">102</text>
    <rect width="24" height="24" fill="#676767" x="168" y="144" />
    <text x="180" y="160" font-size="12" fill="#fff" text-anchor="middle">103</text>
    <rect width="24" height="24" fill="#686868" x="192" y="144" />
    <text x="204" y="160" font-size="12" fill="#fff" text-anchor="middle">104</text>
    <rect width="24" height="24" fill="#696969" x="216" y="144" />
    <text x="228" y="160" font-size="12" fill="#fff" text-anchor="middle">105</text>
    <rect width="24" height="24" fill="#6a6a6a" x="240" y="144" />
    <text x="252" y="160" font-size="12" fill="#fff" text-anchor="middle">106</text>
    <rect width="24" height="24" fill="#6b6b6b" x="264" y="144" />
    <text x="276" y="160" font-size="12" fill="#fff" text-anchor="middle">107</text>
    <rect width="24" height="24" fill="#6c6c6c" x="288" y="144" />
    <text x="300" y="160" font-size="12" fill="#fff" text-anchor="middle">108</text>
    <rect width="24" height="24" fill="#6d6d6d" x="312" y="144" />
    <text x="324" y="160" font-size="12" fill="#fff" text-anchor="middle">109</text>
    <rect width="24" height="24" fill="#6e6e6e" x="336" y="144" />
    <text x="348" y="160" font-size="12" fill="#fff" text-anchor="middle">110</text>
    <rect width="24" height="24" fill="#6f6f6f" x="360" y="144" />
    <text x="372" y="160" font-size="12" fill="#fff" text-anchor="middle">111</text>
    <rect width="24" height="24" fill="#707070" x="0" y="168" />
    <text x="12" y="184" font-size="12" fill="#fff" text-anchor="middle">112</text>
    <rect width="24" height="24" fill="#717171" x="24" y="168" />
    <text x="36" y="184" font-size="12" fill="#fff" text-anchor="middle">113</text>
    <rect width="24" height="24" fill="#727272" x="48" y="168" />
    <text x="60" y="184" font-size="12" fill="#fff" text-anchor="middle">114</text>
    <rect width="24" height="24" fill="#737373" x="72" y="168" />
    <text x="84" y="184" font-size="12" fill="#fff" text-anchor="middle">115</text>
    <rect width="24" height="24" fill="#747474" x="96" y="168" />
    <text x="108" y="184" font-size="12" fill="#fff" text-anchor="middle">116</text>
    <rect width="24" height="24" fill="#757575" x="120" y="168" />
    <text x="132" y="184" font-size="12" fill="#fff" text-anchor="middle">117</text>
    <rect width="24" height="24" fill="#767676" x="144" y="168" />
    <text x="156" y="184" font-size="12" fill="#fff" text-anchor="middle">118</text>
    <rect width="24" height="24" fill="#777777" x="168" y="168" />
    <text x="180" y="184" font-size="12" fill="#fff" text-anchor="middle">119</text>
    <rect width="24" height="24" fill="#787878" x="192" y="168" />
    <text x="204" y="184" font-size="12" fill="#fff" text-anchor="middle">120</text>
    <rect width="24" height="24" fill="#797979" x="216" y="168" />
    <text x="228" y="184" font-size="12" fill="#fff" text-anchor="middle">121</text>
    <rect width="24" height="24" fill="#7a7a7a" x="240" y="168" />
    <text x="252" y="184" font-size="12" fill="#fff" text-anchor="middle">122</text>
    <rect width="24" height="24" fill="#7b7b7b" x="264" y="168" />
    <text x="276" y="184" font-size="12" fill="#fff" text-anchor="middle">123</text>
    <rect width="24" height="24" fill="#7c7c7c" x="288" y="168" />
    <text x="300" y="184" font-size="12" fill="#fff" text-anchor="middle">124</text>
    <rect width="24" height="24" fill="#7d7d7d" x="312" y="168" />
    <text x="324" y="184" font-size="12" fill="#fff" text-anchor="middle">125</text>
    <rect width="24" height="24" fill="#7e7e7e" x="336" y="168" />
    <text x="348" y="184" font-size="12" fill="#fff" text-anchor="middle">126</text>
    <rect width="24" height="24" fill="#7f7f7f" x="360" y="168" />
    <text x="372" y="184" font-size="12" fill="#fff" text-anchor="middle">127</text>
    <rect width="24" height="24" fill="#808080" x="0" y="192" />
    <text x="12" y="208" font-size="12" fill="#000" text-anchor="middle">128</text>
    <rect width="24" height="24" fill="#818181" x="24" y="192" />
    <text x="36" y="208" font-size="12" fill="#000" text-anchor="middle">129</text>
    <rect width="24" height="24" fill="#828282" x="48" y="192" />
    <text x="60" y="208" font-size="12" fill="#000" text-anchor="middle">130</text>
    <rect width="24" height="24" fill="#838383" x="72" y="192" />
    <text x="84" y="208" font-size="12" fill="#000" text-anchor="middle">131</text>
    <rect width="24" height="24" fill="#848484" x="96" y="192" />
    <text x="108" y="208" font-size="12" fill="#000" text-anchor="middle">132</text>
    <rect width="24" height="24" fill="#858585" x="120" y="192" />
    <text x="132" y="208" font-size="12" fill="#000" text-anchor="middle">133</text>
    <rect width="24" height="24" fill="#868686" x="144" y="192" />
    <text x="156" y="208" font-size="12" fill="#000" text-anchor="middle">134</text>
    <rect width="24" height="24" fill="#878787" x="168" y="192" />
    <text x="180" y="208" font-size="12" fill="#000" text-anchor="middle">135</text>
    <rect width="24" height="24" fill="#888888" x="192" y="192" />
    <text x="204" y="208" font-size="12" fill="#000" text-anchor="middle">136</text>
    <rect width="24" height="24" fill="#898989" x="216" y="192" />
    <text x="228" y="208" font-size="12" fill="#000" text-anchor="middle">137</text>
    <rect width="24" height="24" fill="#8a8a8a" x="240" y="192" />
    <text x="252" y="208" font-size="12" fill="#000" text-anchor="middle">138</text>
    <rect width="24" height="24" fill="#8b8b8b" x="264" y="192" />
    <text x="276" y="208" font-size="12" fill="#000" text-anchor="middle">139</text>
    <rect width="24" height="24" fill="#8c8c8c" x="288" y="192" />
    <text x="300" y="208" font-size="12" fill="#000" text-anchor="middle">140</text>
    <rect width="24" height="24" fill="#8d8d8d" x="312" y="192" />
    <text x="324" y="208" font-size="12" fill="#000" text-anchor="middle">141</text>
    <rect width="24" height="24" fill="#8e8e8e" x="336" y="192" />
    <text x="348" y="208" font-size="12" fill="#000" text-anchor="middle">142</text>
    <rect width="24" height="24" fill="#8f8f8f" x="360" y="192" />
    <text x="372" y="208" font-size="12" fill="#000" text-anchor="middle">143</text>
    <rect width="24" height="24" fill="#909090" x="0" y="216" />
    <text x="12" y="232" font-size="12" fill="#000" text-anchor="middle">144</text>
    <rect width="24" height="24" fill="#919191" x="24" y="216" />
    <text x="36" y="232" font-size="12" fill="#000" text-anchor="middle">145</text>
    <rect width="24" height="24" fill="#929292" x="48" y="216" />
    <text x="60" y="232" font-size="12" fill="#000" text-anchor="middle">146</text>
    <rect width="24" height="24" fill="#939393" x="72" y="216" />
    <text x="84" y="232" font-size="12" fill="#000" text-anchor="middle">147</text>
    <rect width="24" height="24" fill="#949494" x="96" y="216" />
    <text x="108" y="232" font-size="12" fill="#000" text-anchor="middle">148</text>
    <rect width="24" height="24" fill="#959595" x="120" y="216" />
    <text x="132" y="232" font-size="12" fill="#000" text-anchor="middle">149</text>
    <rect width="24" height="24" fill="#969696" x="144" y="216" />
    <text x="156" y="232" font-size="12" fill="#000" text-anchor="middle">150</text>
    <rect width="24" height="24" fill="#979797" x="168" y="216" />
    <text x="180" y="232" font-size="12" fill="#000" text-anchor="middle">151</text>
    <rect width="24" height="24" fill="#989898" x="192" y="216" />
    <text x="204" y="232" font-size="12" fill="#000" text-anchor="middle">152</text>
    <rect width="24" height="24" fill="#999999" x="216" y="216" />
    <text x="228" y="232" font-size="12" fill="#000" text-anchor="middle">153</text>
    <rect width="24" height="24" fill="#9a9a9a" x="240" y="216" />
    <text x="252" y="232" font-size="12" fill="#000" text-anchor="middle">154</text>
    <rect width="24" height="24" fill="#9b9b9b" x="264" y="216" />
    <text x="276" y="232" font-size="12" fill="#000" text-anchor="middle">155</text>
    <rect width="24" height="24" fill="#9c9c9c" x="288" y="216" />
    <text x="300" y="232" font-size="12" fill="#000" text-anchor="middle">156</text>
    <rect width="24" height="24" fill="#9d9d9d" x="312" y="216" />
    <text x="324" y="232" font-size="12" fill="#000" text-anchor="middle">157</text>
    <rect width="24" height="24" fill="#9e9e9e" x="336" y="216" />
    <text x="348" y="232" font-size="12" fill="#000" text-anchor="middle">158</text>
    <rect width="24" height="24" fill="#9f9f9f" x="360" y="216" />
    <text x="372" y="232" font-size="12" fill="#000" text-anchor="middle">159</text>
    <rect width="24" height="24" fill="#a0a0a0" x="0" y="240" />
    <text x="12" y="256" font-size="12" fill="#000" text-anchor="middle">160</text>
    <rect width="24" height="24" fill="#a1a1a1" x="24" y="240" />
    <text x="36" y="256" font-size="12" fill="#000" text-anchor="middle">161</text>
    <rect width="24" height="24" fill="#a2a2a2" x="48" y="240" />
    <text x="60" y="256" font-size="12" fill="#000" text-anchor="middle">162</text>
    <rect width="24" height="24" fill="#a3a3a3" x="72" y="240" />
    <text x="84" y="256" font-size="12" fill="#000" text-anchor="middle">163</text>
    <rect width="24" height="24" fill="#a4a4a4" x="96" y="240" />
    <text x="108" y="256" font-size="12" fill="#000" text-anchor="middle">164</text>
    <rect width="24" height="24" fill="#a5a5a5" x="120" y="240" />
    <text x="132" y="256" font-size="12" fill="#000" text-anchor="middle">165</text>
    <rect width="24" height="24" fill="#a6a6a6" x="144" y="240" />
    <text x="156" y="256" font-size="12" fill="#000" text-anchor="middle">166</text>
    <rect width="24" height="24" fill="#a7a7a7" x="168" y="240" />
    <text x="180" y="256" font-size="12" fill="#000" text-anchor="middle">167</text>
    <rect width="24" height="24" fill="#a8a8a8" x="192" y="240" />
    <text x="204" y="256" font-size="12" fill="#000" text-anchor="middle">168</text>
    <rect width="24" height="24" fill="#a9a9a9" x="216" y="240" />
    <text x="228" y="256" font-size="12" fill="#000" text-anchor="middle">169</text>
    <rect width="24" height="24" fill="#aaaaaa" x="240" y="240" />
    <text x="252" y="256" font-size="12" fill="#000" text-anchor="middle">170</text>
    <rect width="24" height="24" fill="#ababab" x="264" y="240" />
    <text x="276" y="256" font-size="12" fill="#000" text-anchor="middle">171</text>
    <rect width="24" height="24" fill="#acacac" x="288" y="240" />
    <text x="300" y="256" font-size="12" fill="#000" text-anchor="middle">172</text>
    <rect width="24" height="24" fill="#adadad" x="312" y="240" />
    <text x="324" y="256" font-size="12" fill="#000" text-anchor="middle">173</text>
    <rect width="24" height="24" fill="#aeaeae" x="336" y="240" />
    <text x="348" y="256" font-size="12" fill="#000" text-anchor="middle">174</text>
    <rect width="24" height="24" fill="#afafaf" x="360" y="240" />
    <text x="372" y="256" font-size="12" fill="#000" text-anchor="middle">175</text>
    <rect width="24" height="24" fill="#b0b0b0" x="0" y="264" />
    <text x="12" y="280" font-size="12" fill="#000" text-anchor="middle">176</text>
    <rect width="24" height="24" fill="#b1b1b1" x="24" y="264" />
    <text x="36" y="280" font-size="12" fill="#000" text-anchor="middle">177</text>
    <rect width="24" height="24" fill="#b2b2b2" x="48" y="264" />
    <text x="60" y="280" font-size="12" fill="#000" text-anchor="middle">178</text>
    <rect width="24" height="24" fill="#b3b3b3" x="72" y="264" />
    <text x="84" y="280" font-size="12" fill="#000" text-anchor="middle">179</text>
    <rect width="24" height="24" fill="#b4b4b4" x="96" y="264" />
    <text x="108" y="280" font-size="12" fill="#000" text-anchor="middle">180</text>
    <rect width="24" height="24" fill="#b5b5b5" x="120" y="264" />
    <text x="132" y="280" font-size="12" fill="#000" text-anchor="middle">181</text>
    <rect width="24" height="24" fill="#b6b6b6" x="144" y="264" />
    <text x="156" y="280" font-size="12" fill="#000" text-anchor="middle">182</text>
    <rect width="24" height="24" fill="#b7b7b7" x="168" y="264" />
    <text x="180" y="280" font-size="12" fill="#000" text-anchor="middle">183</text>
    <rect width="24" height="24" fill="#b8b8b8" x="192" y="264" />
    <text x="204" y="280" font-size="12" fill="#000" text-anchor="middle">184</text>
    <rect width="24" height="24" fill="#b9b9b9" x="216" y="264" />
    <text x="228" y="280" font-size="12" fill="#000" text-anchor="middle">185</text>
    <rect width="24" height="24" fill="#bababa" x="240" y="264" />
    <text x="252" y="280" font-size="12" fill="#000" text-anchor="middle">186</text>
    <rect width="24" height="24" fill="#bbbbbb" x="264" y="264" />
    <text x="276" y="280" font-size="12" fill="#000" text-anchor="middle">187</text>
    <rect width="24" height="24" fill="#bcbcbc" x="288" y="264" />
    <text x="300" y="280" font-size="12" fill="#000" text-anchor="middle">188</text>
    <rect width="24" height="24" fill="#bdbdbd" x="312" y="264" />
    <text x="324" y="280" font-size="12" fill="#000" text-anchor="middle">189</text>
    <rect width="24" height="24" fill="#bebebe" x="336" y="264" />
    <text x="348" y="280" font-size="12" fill="#000" text-anchor="middle">190</text>
    <rect width="24" height="24" fill="#bfbfbf" x="360" y="264" />
    <text x="372" y="280" font-size="12" fill="#000" text-anchor="middle">191</text>
    <rect width="24" height="24" fill="#c0c0c0" x="0" y="288" />
    <text x="12" y="304" font-size="12" fill="#000" text-anchor="middle">192</text>
    <rect width="24" height="24" fill="#c1c1c1" x="24" y="288" />
    <text x="36" y="304" font-size="12" fill="#000" text-anchor="middle">193</text>
    <rect width="24" height="24" fill="#c2c2c2" x="48" y="288" />
    <text x="60" y="304" font-size="12" fill="#000" text-anchor="middle">194</text>
    <rect width="24" height="24" fill="#c3c3c3" x="72" y="288" />
    <text x="84" y="304" font-size="12" fill="#000" text-anchor="middle">195</text>
    <rect width="24" height="24" fill="#c4c4c4" x="96" y="288" />
    <text x="108" y="304" font-size="12" fill="#000" text-anchor="middle">196</text>
    <rect width="24" height="24" fill="#c5c5c5" x="120" y="288" />
    <text x="132" y="304" font-size="12" fill="#000" text-anchor="middle">197</text>
    <rect width="24" height="24" fill="#c6c6c6" x="144" y="288" />
    <text x="156" y="304" font-size="12" fill="#000" text-anchor="middle">198</text>
    <rect width="24" height="24" fill="#c7c7c7" x="168" y="288" />
    <text x="180" y="304" font-size="12" fill="#000" text-anchor="middle">199</text>
    <rect width="24" height="24" fill="#c8c8c8" x="192" y="288" />
    <text x="204" y="304" font-size="12" fill="#000" text-anchor="middle">200</text>
    <rect width="24" height="24" fill="#c9c9c9" x="216" y="288" />
    <text x="228" y="304" font-size="12" fill="#000" text-anchor="middle">201</text>
    <rect width="24" height="24" fill="#cacaca" x="240" y="288" />
    <text x="252" y="304" font-size="12" fill="#000" text-anchor="middle">202</text>
    <rect width="24" height="24" fill="#cbcbcb" x="264" y="288" />
    <text x="276" y="304" font-size="12" fill="#000" text-anchor="middle">203</text>
    <rect width="24" height="24" fill="#cccccc" x="288" y="288" />
    <text x="300" y="304" font-size="12" fill="#000" text-anchor="middle">204</text>
    <rect width="24" height="24" fill="#cdcdcd" x="312" y="288" />
    <text x="324" y="304" font-size="12" fill="#000" text-anchor="middle">205</text>
    <rect width="24" height="24" fill="#cecece" x="336" y="288" />
    <text x="348" y="304" font-size="12" fill="#000" text-anchor="middle">206</text>
    <rect width="24" height="24" fill="#cfcfcf" x="360" y="288" />
    <text x="372" y="304" font-size="12" fill="#000" text-anchor="middle">207</text>
    <rect width="24" height="24" fill="#d0d0d0" x="0" y="312" />
    <text x="12" y="328" font-size="12" fill="#000" text-anchor="middle">208</text>
    <rect width="24" height="24" fill="#d1d1d1" x="24" y="312" />
    <text x="36" y="328" font-size="12" fill="#000" text-anchor="middle">209</text>
    <rect width="24" height="24" fill="#d2d2d2" x="48" y="312" />
    <text x="60" y="328" font-size="12" fill="#000" text-anchor="middle">210</text>
    <rect width="24" height="24" fill="#d3d3d3" x="72" y="312" />
    <text x="84" y="328" font-size="12" fill="#000" text-anchor="middle">211</text>
    <rect width="24" height="24" fill="#d4d4d4" x="96" y="312" />
    <text x="108" y="328" font-size="12" fill="#000" text-anchor="middle">212</text>
    <rect width="24" height="24" fill="#d5d5d5" x="120" y="312" />
    <text x="132" y="328" font-size="12" fill="#000" text-anchor="middle">213</text>
    <rect width="24" height="24" fill="#d6d6d6" x="144" y="312" />
    <text x="156" y="328" font-size="12" fill="#000" text-anchor="middle">214</text>
    <rect width="24" height="24" fill="#d7d7d7" x="168" y="312" />
    <text x="180" y="328" font-size="12" fill="#000" text-anchor="middle">215</text>
    <rect width="24" height="24" fill="#d8d8d8" x="192" y="312" />
    <text x="204" y="328" font-size="12" fill="#000" text-anchor="middle">216</text>
    <rect width="24" height="24" fill="#d9d9d9" x="216" y="312" />
    <text x="228" y="328" font-size="12" fill="#000" text-anchor="middle">217</text>
    <rect width="24" height="24" fill="#dadada" x="240" y="312" />
    <text x="252" y="328" font-size="12" fill="#000" text-anchor="middle">218</text>
    <rect width="24" height="24" fill="#dbdbdb" x="264" y="312" />
    <text x="276" y="328" font-size="12" fill="#000" text-anchor="middle">219</text>
    <rect width="24" height="24" fill="#dcdcdc" x="288" y="312" />
    <text x="300" y="328" font-size="12" fill="#000" text-anchor="middle">220</text>
    <rect width="24" height="24" fill="#dddddd" x="312" y="312" />
    <text x="324" y="328" font-size="12" fill="#000" text-anchor="middle">221</text>
    <rect width="24" height="24" fill="#dedede" x="336" y="312" />
    <text x="348" y="328" font-size="12" fill="#000" text-anchor="middle">222</text>
    <rect width="24" height="24" fill="#dfdfdf" x="360" y="312" />
    <text x="372" y="328" font-size="12" fill="#000" text-anchor="middle">223</text>
    <rect width="24" height="24" fill="#e0e0e0" x="0" y="336" />
    <text x="12" y="352" font-size="12" fill="#000" text-anchor="middle">224</text>
    <rect width="24" height="24" fill="#e1e1e1" x="24" y="336" />
    <text x="36" y="352" font-size="12" fill="#000" text-anchor="middle">225</text>
    <rect width="24" height="24" fill="#e2e2e2" x="48" y="336" />
    <text x="60" y="352" font-size="12" fill="#000" text-anchor="middle">226</text>
    <rect width="24" height="24" fill="#e3e3e3" x="72" y="336" />
    <text x="84" y="352" font-size="12" fill="#000" text-anchor="middle">227</text>
    <rect width="24" height="24" fill="#e4e4e4" x="96" y="336" />
    <text x="108" y="352" font-size="12" fill="#000" text-anchor="middle">228</text>
    <rect width="24" height="24" fill="#e5e5e5" x="120" y="336" />
    <text x="132" y="352" font-size="12" fill="#000" text-anchor="middle">229</text>
    <rect width="24" height="24" fill="#e6e6e6" x="144" y="336" />
    <text x="156" y="352" font-size="12" fill="#000" text-anchor="middle">230</text>
    <rect width="24" height="24" fill="#e7e7e7" x="168" y="336" />
    <text x="180" y="352" font-size="12" fill="#000" text-anchor="middle">231</text>
    <rect width="24" height="24" fill="#e8e8e8" x="192" y="336" />
    <text x="204" y="352" font-size="12" fill="#000" text-anchor="middle">232</text>
    <rect width="24" height="24" fill="#e9e9e9" x="216" y="336" />
    <text x="228" y="352" font-size="12" fill="#000" text-anchor="middle">233</text>
    <rect width="24" height="24" fill="#eaeaea" x="240" y="336" />
    <text x="252" y="352" font-size="12" fill="#000" text-anchor="middle">234</text>
    <rect width="24" height="24" fill="#ebebeb" x="264" y="336" />
    <text x="276" y="352" font-size="12" fill="#000" text-anchor="middle">235</text>
    <rect width="24" height="24" fill="#ececec" x="288" y="336" />
    <text x="300" y="352" font-size="12" fill="#000" text-anchor="middle">236</text>
    <rect width="24" height="24" fill="#ededed" x="312" y="336" />
    <text x="324" y="352" font-size="12" fill="#000" text-anchor="middle">237</text>
    <rect width="24" height="24" fill="#eeeeee" x="336" y="336" />
    <text x="348" y="352" font-size="12" fill="#000" text-anchor="middle">238</text>
    <rect width="24" height="24" fill="#efefef" x="360" y="336" />
    <text x="372" y="352" font-size="12" fill="#000" text-anchor="middle">239</text>
    <rect width="24" height="24" fill="#f0f0f0" x="0" y="360" />
    <text x="12" y="376" font-size="12" fill="#000" text-anchor="middle">240</text>
    <rect width="24" height="24" fill="#f1f1f1" x="24" y="360" />
    <text x="36" y="376" font-size="12" fill="#000" text-anchor="middle">241</text>
    <rect width="24" height="24" fill="#f2f2f2" x="48" y="360" />
    <text x="60" y="376" font-size="12" fill="#000" text-anchor="middle">242</text>
    <rect width="24" height="24" fill="#f3f3f3" x="72" y="360" />
    <text x="84" y="376" font-size="12" fill="#000" text-anchor="middle">243</text>
    <rect width="24" height="24" fill="#f4f4f4" x="96" y="360" />
    <text x="108" y="376" font-size="12" fill="#000" text-anchor="middle">244</text>
    <rect width="24" height="24" fill="#f5f5f5" x="120" y="360" />
    <text x="132" y="376" font-size="12" fill="#000" text-anchor="middle">245</text>
    <rect width="24" height="24" fill="#f6f6f6" x="144" y="360" />
    <text x="156" y="376" font-size="12" fill="#000" text-anchor="middle">246</text>
    <rect width="24" height="24" fill="#f7f7f7" x="168" y="360" />
    <text x="180" y="376" font-size="12" fill="#000" text-anchor="middle">247</text>
    <rect width="24" height="24" fill="#f8f8f8" x="192" y="360" />
    <text x="204" y="376" font-size="12" fill="#000" text-anchor="middle">248</text>
    <rect width="24" height="24" fill="#f9f9f9" x="216" y="360" />
    <text x="228" y="376" font-size="12" fill="#000" text-anchor="middle">249</text>
    <rect width="24" height="24" fill="#fafafa" x="240" y="360" />
    <text x="252" y="376" font-size="12" fill="#000" text-anchor="middle">250</text>
    <rect width="24" height="24" fill="#fbfbfb" x="264" y="360" />
    <text x="276" y="376" font-size="12" fill="#000" text-anchor="middle">251</text>
    <rect width="24" height="24" fill="#fcfcfc" x="288" y="360" />
    <text x="300" y="376" font-size="12" fill="#000" text-anchor="middle">252</text>
    <rect width="24" height="24" fill="#fdfdfd" x="312" y="360" />
    <text x="324" y="376" font-size="12" fill="#000" text-anchor="middle">253</text>
    <rect width="24" height="24" fill="#fefefe" x="336" y="360" />
    <text x="348" y="376" font-size="12" fill="#000" text-anchor="middle">254</text>
    <rect width="24" height="24" fill="#ffffff" x="360" y="360" />
    <text x="372" y="376" font-size="12" fill="#000" text-anchor="middle">255</text>
</svg>
