<svg version="1.1" xmlns="http://www.w3.org/2000/svg" xmlns:xlink="http://www.w3.org/1999/xlink" x="0px" y="0px" viewBox="0 0 397.1 327.4" style="enable-background:new 0 0 397.1 327.4;" xml:space="preserve">
    <path style="fill:none;" d="z"/>
    <path style="fill:#00BFFF;" d="M225.1,199.6c-55.5,51.6-182.4,48.6-182.4,48.6L64,327.3c0,0,126.9,3,182.4-48.6
    	c55.6-51.6,150.7-40.2,150.7-40.2l-21.3-79.2C375.8,159.4,280.6,148,225.1,199.6L225.1,199.6z M225.1,199.6L225.1,199.6z"/>
    <path style="fill:#F0F0F0;" d="M21.3,169l21.3,79.2c0,0,126.9,3,182.4-48.6c55.6-51.6,150.7-40.2,150.7-40.2l-21.3-79.2
    	c0,0-95.1-11.4-150.7,40.2C148.2,172,21.3,169,21.3,169z"/>
    <path style="fill:#00BFFF;" d="M182.4,41.2C126.9,92.8,0,89.8,0,89.8L21.3,169c0,0,126.9,3,182.4-48.6
    	c55.6-51.6,150.7-40.2,150.7-40.2L333.1,1.1C333.1,1.1,238-10.3,182.4,41.2L182.4,41.2z M182.4,41.2L182.4,41.2z"/>
    <path style="fill:#00B0EB;" d="M246.4,278.7c6.6-6.1,13.7-11.3,21.2-15.8l-21.3-79.2c-7.5,4.5-14.6,9.7-21.2,15.8
    	c-21.1,19.6-52.4,31.3-83.2,38.3l21.3,79.2c10.2-2.3,20.5-5.2,30.5-8.7C193.7,308.4,235.3,289.1,246.4,278.7z"/>
    <path style="fill:#CCCCCC;" d="M141.9,237.9c30.8-7,62.1-18.7,83.2-38.3c6.6-6.1,13.7-11.4,21.2-15.8L225,104.6
    	c-7.5,4.5-14.6,9.7-21.2,15.8c-21.1,19.6-52.4,31.3-83.2,38.3L141.9,237.9z"/>
    <path style="fill:#00B0EB;" d="M142.1,66.1c-13.7,5.8-28.4,10.1-42.9,13.4l21.3,79.2c30.8-7,62.1-18.7,83.2-38.3
    	c6.6-6.1,13.7-11.3,21.2-15.8l-21.3-79.1c-7.5,4.4-14.6,9.7-21.2,15.8C171.3,51.6,157.4,59.7,142.1,66.1z"/>
    <path style="fill:#F9F900;" d="M178.8,149.4c0,0,3.6,3.9,6.7,3.8c3.1-0.1,6.6-4.1,6.6-4.1s1.4,5.1,4.1,6.5c2.7,1.3,7.7-0.6,7.7-0.6
    	s-1.2,5.2,0.6,7.6c1.8,2.5,7.1,3,7.1,3s-3.5,4.1-3,7.1c0.4,3,4.9,5.9,4.9,5.9s-5,2-6,4.9s1.5,7.5,1.5,7.5s-5.3-0.5-7.6,1.6
    	c-2.3,2.1-2.2,7.4-2.2,7.4s-4.5-2.9-7.4-2.1c-3,0.8-5.4,5.5-5.4,5.5s-2.6-4.6-5.6-5.3c-3-0.7-7.4,2.4-7.4,2.4s-0.1-5.3-2.4-7.3
    	c-2.3-2-7.6-1.2-7.6-1.2s2.4-4.8,1.2-7.6c-1.1-2.8-6.2-4.6-6.2-4.6s4.3-3.1,4.7-6.1c0.3-3-3.3-6.9-3.3-6.9s5.3-0.8,7-3.3
    	c1.7-2.5,0.3-7.6,0.3-7.6s5.1,1.8,7.7,0.3C177.6,154.6,178.8,149.4,178.8,149.4z"/>
    <path style="fill:none;" d="z"/>
</svg>
