<svg class="icono" viewBox="0 0 32 32" style="background-color:#ffffff00" xmlns="http://www.w3.org/2000/svg" width="32" height="32"><path d="M15.999 0C7.164 0 0 7.115 0 15.893c0 7.021 4.584 12.978 10.943 15.08.8.146 1.092-.345 1.092-.766 0-.378-.014-1.377-.022-2.703-4.45.96-5.39-2.13-5.39-2.13-.727-1.837-1.776-2.325-1.776-2.325-1.453-.986.11-.966.11-.966 1.605.112 2.45 1.637 2.45 1.637 1.428 2.429 3.745 1.728 4.657 1.32.145-1.026.559-1.726 1.016-2.124-3.553-.4-7.288-1.764-7.288-7.854 0-1.735.623-3.154 1.647-4.265-.165-.402-.714-2.018.156-4.206 0 0 1.344-.427 4.4 1.63a15.425 15.425 0 0 1 4.006-.536 15.51 15.51 0 0 1 4.006.535c3.054-2.056 4.395-1.629 4.395-1.629.873 2.188.324 3.804.16 4.206 1.025 1.111 1.644 2.53 1.644 4.265 0 6.105-3.741 7.448-7.305 7.842.574.49 1.086 1.46 1.086 2.943 0 2.124-.02 3.838-.02 4.36 0 .425.289.92 1.1.764C27.42 28.865 32 22.912 32 15.893 32 7.115 24.836 0 15.999 0z" fill="#110c0d"/></svg>
