<?xml version="1.0" standalone="no"?>
<!-- Generator: Adobe Fireworks 10, Export SVG Extension by Aaron Beall (http://fireworks.abeall.com) . Version: 0.6.1  -->
<!DOCTYPE svg PUBLIC "-//W3C//DTD SVG 1.1//EN" "http://www.w3.org/Graphics/SVG/1.1/DTD/svg11.dtd">
<svg id="Untitled-P%E1gina%201" viewBox="0 0 32 32" style="background-color:#ffffff00" version="1.1"
	xmlns="http://www.w3.org/2000/svg" xmlns:xlink="http://www.w3.org/1999/xlink" xml:space="preserve"
	x="0px" y="0px" width="32px" height="32px"
>
	<path d="M 18.0996 18.9004 C 13.7002 23 3.3999 22.7998 3.3999 22.7998 L 5.1001 29.2002 C 5.1001 29.2002 15.2998 29.4004 19.7998 25.2998 C 24.2998 21.0996 32 22 32 22 L 30.2998 15.6001 C 30.2998 15.6001 22.5996 14.7002 18.0996 18.9004 L 18.0996 18.9004 ZM 18.0996 18.9004 L 18.0996 18.9004 Z" fill="#00bfff"/>
	<path d="M 1.7002 16.3999 L 3.3999 22.7998 C 3.3999 22.7998 13.6001 23 18.0996 18.9004 C 22.5996 14.7002 30.2002 15.7002 30.2002 15.7002 L 28.5 9.2998 C 28.5 9.2998 20.7998 8.3999 16.3999 12.5 C 11.8999 16.7002 1.7002 16.3999 1.7002 16.3999 Z" fill="#f0f0f0"/>
	<path d="M 14.7002 6.1001 C 10.2002 10.2998 0 10 0 10 L 1.7002 16.3999 C 1.7002 16.3999 11.8999 16.6001 16.3999 12.5 C 20.9004 8.2998 28.5 9.2998 28.5 9.2998 L 26.7998 2.8999 C 26.7998 2.8999 19.2002 2 14.7002 6.1001 L 14.7002 6.1001 ZM 14.7002 6.1001 L 14.7002 6.1001 Z" fill="#00bfff"/>
	<path d="M 19.9004 25.2002 C 20.4004 24.7002 21 24.2998 21.5996 23.9004 L 19.9004 17.5 C 19.2998 17.9004 18.7002 18.2998 18.2002 18.7998 C 16.5 20.4004 14 21.2998 11.5 21.9004 L 13.2002 28.2998 C 14 28.0996 14.8999 27.9004 15.7002 27.5996 C 15.6001 27.5996 19 26.0996 19.9004 25.2002 Z" fill="#00b0eb"/>
	<path d="M 11.3999 22 C 13.8999 21.4004 16.3999 20.5 18.0996 18.9004 C 18.5996 18.4004 19.2002 18 19.7998 17.5996 L 18.0996 11.2002 C 17.5 11.6001 16.8999 12 16.3999 12.5 C 14.7002 14.1001 12.2002 15 9.7002 15.6001 L 11.3999 22 Z" fill="#cccccc"/>
	<path d="M 11.5 8.1001 C 10.2998 8.6001 9.2002 8.8999 8 9.2002 L 9.7002 15.6001 C 12.2002 15 14.7002 14.1001 16.3999 12.5 C 16.8999 12 17.5 11.6001 18.0996 11.2002 L 16.3999 4.7998 C 15.7998 5.2002 15.2002 5.6001 14.7002 6.1001 C 13.7998 6.8999 12.7002 7.6001 11.5 8.1001 Z" fill="#00b0eb"/>
	<path d="M 14.3999 14.7998 C 14.3999 14.7998 14.7002 15.1001 14.8999 15.1001 C 15.1001 15.1001 15.3999 14.7998 15.3999 14.7998 C 15.3999 14.7998 15.5 15.2002 15.7002 15.2998 C 15.8999 15.3999 16.2998 15.2998 16.2998 15.2998 C 16.2998 15.2998 16.2002 15.7002 16.2998 15.8999 C 16.3999 16.1001 16.8999 16.1001 16.8999 16.1001 C 16.8999 16.1001 16.6001 16.3999 16.7002 16.7002 C 16.7002 16.8999 17.0996 17.2002 17.0996 17.2002 C 17.0996 17.2002 16.7002 17.4004 16.6001 17.5996 C 16.5 17.7998 16.7002 18.2002 16.7002 18.2002 C 16.7002 18.2002 16.2998 18.2002 16.1001 18.2998 C 15.8999 18.5 15.8999 18.9004 15.8999 18.9004 C 15.8999 18.9004 15.5 18.7002 15.2998 18.7002 C 15.1001 18.7998 14.8999 19.0996 14.8999 19.0996 C 14.8999 19.0996 14.7002 18.7002 14.3999 18.7002 C 14.2002 18.5996 13.7998 18.9004 13.7998 18.9004 C 13.7998 18.9004 13.7998 18.5 13.6001 18.2998 C 13.3999 18.0996 13 18.2002 13 18.2002 C 13 18.2002 13.2002 17.7998 13.1001 17.5996 C 13 17.4004 12.6001 17.2002 12.6001 17.2002 C 12.6001 17.2002 12.8999 17 13 16.7002 C 13 16.5 12.7002 16.1001 12.7002 16.1001 C 12.7002 16.1001 13.1001 16 13.2998 15.7998 C 13.3999 15.6001 13.2998 15.2002 13.2998 15.2002 C 13.2998 15.2002 13.7002 15.2998 13.8999 15.2002 C 14.2998 15.2002 14.3999 14.7998 14.3999 14.7998 Z" fill="#f9f900"/>
	<path d="M 18.0996 18.9004 C 13.7002 23 3.3999 22.7998 3.3999 22.7998 L 5.1001 29.2002 C 5.1001 29.2002 15.2998 29.4004 19.7998 25.2998 C 24.2998 21.0996 32 22 32 22 L 30.2998 15.6001 C 30.2998 15.6001 22.5996 14.7002 18.0996 18.9004 L 18.0996 18.9004 ZM 18.0996 18.9004 L 18.0996 18.9004 Z" fill="#00bfff"/>
	<path d="M 1.7002 16.3999 L 3.3999 22.7998 C 3.3999 22.7998 13.6001 23 18.0996 18.9004 C 22.5996 14.7002 30.2002 15.7002 30.2002 15.7002 L 28.5 9.2998 C 28.5 9.2998 20.7998 8.3999 16.3999 12.5 C 11.8999 16.7002 1.7002 16.3999 1.7002 16.3999 Z" fill="#f0f0f0"/>
	<path d="M 14.7002 6.1001 C 10.2002 10.2998 0 10 0 10 L 1.7002 16.3999 C 1.7002 16.3999 11.8999 16.6001 16.3999 12.5 C 20.9004 8.2998 28.5 9.2998 28.5 9.2998 L 26.7998 2.8999 C 26.7998 2.8999 19.2002 2 14.7002 6.1001 L 14.7002 6.1001 ZM 14.7002 6.1001 L 14.7002 6.1001 Z" fill="#00bfff"/>
	<path d="M 19.9004 25.2002 C 20.4004 24.7002 21 24.2998 21.5996 23.9004 L 19.9004 17.5 C 19.2998 17.9004 18.7002 18.2998 18.2002 18.7998 C 16.5 20.4004 14 21.2998 11.5 21.9004 L 13.2002 28.2998 C 14 28.0996 14.8999 27.9004 15.7002 27.5996 C 15.6001 27.5996 19 26.0996 19.9004 25.2002 Z" fill="#00b0eb"/>
	<path d="M 11.3999 22 C 13.8999 21.4004 16.3999 20.5 18.0996 18.9004 C 18.5996 18.4004 19.2002 18 19.7998 17.5996 L 18.0996 11.2002 C 17.5 11.6001 16.8999 12 16.3999 12.5 C 14.7002 14.1001 12.2002 15 9.7002 15.6001 L 11.3999 22 Z" fill="#cccccc"/>
	<path d="M 11.5 8.1001 C 10.2998 8.6001 9.2002 8.8999 8 9.2002 L 9.7002 15.6001 C 12.2002 15 14.7002 14.1001 16.3999 12.5 C 16.8999 12 17.5 11.6001 18.0996 11.2002 L 16.3999 4.7998 C 15.7998 5.2002 15.2002 5.6001 14.7002 6.1001 C 13.7998 6.8999 12.7002 7.6001 11.5 8.1001 Z" fill="#00b0eb"/>
	<path d="M 14.3999 14.7998 C 14.3999 14.7998 14.7002 15.1001 14.8999 15.1001 C 15.1001 15.1001 15.3999 14.7998 15.3999 14.7998 C 15.3999 14.7998 15.5 15.2002 15.7002 15.2998 C 15.8999 15.3999 16.2998 15.2998 16.2998 15.2998 C 16.2998 15.2998 16.2002 15.7002 16.2998 15.8999 C 16.3999 16.1001 16.8999 16.1001 16.8999 16.1001 C 16.8999 16.1001 16.6001 16.3999 16.7002 16.7002 C 16.7002 16.8999 17.0996 17.2002 17.0996 17.2002 C 17.0996 17.2002 16.7002 17.4004 16.6001 17.5996 C 16.5 17.7998 16.7002 18.2002 16.7002 18.2002 C 16.7002 18.2002 16.2998 18.2002 16.1001 18.2998 C 15.8999 18.5 15.8999 18.9004 15.8999 18.9004 C 15.8999 18.9004 15.5 18.7002 15.2998 18.7002 C 15.1001 18.7998 14.8999 19.0996 14.8999 19.0996 C 14.8999 19.0996 14.7002 18.7002 14.3999 18.7002 C 14.2002 18.5996 13.7998 18.9004 13.7998 18.9004 C 13.7998 18.9004 13.7998 18.5 13.6001 18.2998 C 13.3999 18.0996 13 18.2002 13 18.2002 C 13 18.2002 13.2002 17.7998 13.1001 17.5996 C 13 17.4004 12.6001 17.2002 12.6001 17.2002 C 12.6001 17.2002 12.8999 17 13 16.7002 C 13 16.5 12.7002 16.1001 12.7002 16.1001 C 12.7002 16.1001 13.1001 16 13.2998 15.7998 C 13.3999 15.6001 13.2998 15.2002 13.2998 15.2002 C 13.2998 15.2002 13.7002 15.2998 13.8999 15.2002 C 14.2998 15.2002 14.3999 14.7998 14.3999 14.7998 Z" fill="#f9f900"/>
</svg>
