<?xml version="1.0" standalone="no"?>
<!-- Generator: Adobe Fireworks 10, Export SVG Extension by Aaron Beall (http://fireworks.abeall.com) . Version: 0.6.1  -->
<!DOCTYPE svg PUBLIC "-//W3C//DTD SVG 1.1//EN" "http://www.w3.org/Graphics/SVG/1.1/DTD/svg11.dtd">
<svg id="Untitled-Page%201" viewBox="0 0 32 32" style="background-color:#ffffff00" version="1.1"
	xmlns="http://www.w3.org/2000/svg" xmlns:xlink="http://www.w3.org/1999/xlink" xml:space="preserve"
	x="0px" y="0px" width="32px" height="32px"
>
	<g id="Layer%201">
		<path d="M 15.999 0 C 7.1643 0 0 7.1152 0 15.8934 C 0 22.9143 4.584 28.8709 10.9426 30.9727 C 11.7426 31.1185 12.0346 30.6278 12.0346 30.2067 C 12.0346 29.8294 12.0207 28.8299 12.0131 27.5037 C 7.5624 28.4641 6.6233 25.3733 6.6233 25.3733 C 5.8957 23.5374 4.8469 23.0486 4.8469 23.0486 C 3.3941 22.0625 4.9567 22.0825 4.9567 22.0825 C 6.5624 22.195 7.4075 23.7203 7.4075 23.7203 C 8.8347 26.1489 11.1522 25.4477 12.0639 25.0408 C 12.2092 24.0138 12.6226 23.3135 13.0797 22.9162 C 9.5268 22.5151 5.7917 21.1517 5.7917 15.0617 C 5.7917 13.3267 6.4151 11.908 7.4386 10.7971 C 7.2741 10.3951 6.725 8.7792 7.5954 6.5912 C 7.5954 6.5912 8.9388 6.1639 11.9953 8.2204 C 13.2715 7.8679 14.6403 7.6916 16.001 7.6854 C 17.3597 7.6916 18.7285 7.8679 20.0066 8.2204 C 23.0612 6.1639 24.4021 6.5912 24.4021 6.5912 C 25.275 8.7792 24.7259 10.3951 24.5614 10.7971 C 25.5868 11.908 26.2059 13.3267 26.2059 15.0617 C 26.2059 21.1669 22.465 22.5103 18.9006 22.9038 C 19.4752 23.3945 19.9869 24.3644 19.9869 25.8468 C 19.9869 27.9715 19.9673 29.6855 19.9673 30.2067 C 19.9673 30.6316 20.2555 31.1261 21.0675 30.9708 C 27.4198 28.8652 32 22.9124 32 15.8934 C 32 7.1152 24.8357 0 15.999 0 Z" fill="#110c0d"/>
	</g>
</svg>