<?xml version="1.0" standalone="no"?>
<!-- Generator: Adobe Fireworks 10, Export SVG Extension by Aaron Beall (http://fireworks.abeall.com) . Version: 0.6.1  -->
<!DOCTYPE svg PUBLIC "-//W3C//DTD SVG 1.1//EN" "http://www.w3.org/Graphics/SVG/1.1/DTD/svg11.dtd">
<svg id="Untitled-Page%201" viewBox="0 0 32 32" style="background-color:#ffffff00" version="1.1"
	xmlns="http://www.w3.org/2000/svg" xmlns:xlink="http://www.w3.org/1999/xlink" xml:space="preserve"
	x="0px" y="0px" width="32px" height="32px"
>
	<g id="Layer%201">
		<path d="M 31.9707 6.0727 C 30.7959 6.5952 29.5334 6.9484 28.2082 7.1071 C 29.5608 6.2941 30.5995 5.0067 31.0886 3.4727 C 29.8229 4.2255 28.4209 4.7722 26.9287 5.0669 C 25.7338 3.7901 24.0312 2.9923 22.1471 2.9923 C 18.5291 2.9923 15.596 5.9336 15.596 9.5615 C 15.596 10.0764 15.654 10.5777 15.7656 11.0585 C 10.3213 10.7846 5.4943 8.1693 2.2633 4.1947 C 1.6994 5.165 1.3764 6.2935 1.3764 7.4974 C 1.3764 9.7765 2.5329 11.7873 4.2906 12.9653 C 3.2168 12.9313 2.2067 12.6357 1.3234 12.1436 C 1.323 12.1711 1.3229 12.1986 1.3229 12.2262 C 1.3229 15.4092 3.581 18.0644 6.5778 18.6678 C 6.0281 18.8179 5.4493 18.8982 4.8519 18.8982 C 4.4298 18.8982 4.0194 18.857 3.6194 18.7804 C 4.453 21.3902 6.8723 23.2896 9.7389 23.3427 C 7.4969 25.1045 4.6723 26.1548 1.6031 26.1548 C 1.0743 26.1548 0.5529 26.1237 0.0404 26.063 C 2.9395 27.9269 6.3829 29.0144 10.0823 29.0144 C 22.1318 29.0144 28.7209 19.0043 28.7209 10.3232 C 28.7209 10.0384 28.7145 9.7551 28.702 9.4734 C 29.9818 8.5472 31.0925 7.3901 31.9707 6.0727 Z" fill="#55acee"/>
	</g>
</svg>